<svg width="28" height="28" viewBox="0 0 28 28" fill="none" xmlns="http://www.w3.org/2000/svg">
<path d="M12.5102 2.83054C13.3052 1.94253 14.6955 1.94253 15.4904 2.83054L16.0024 3.40242C16.4076 3.85499 16.9964 4.0989 17.6029 4.06537L18.3693 4.02301C19.5594 3.95722 20.5425 4.94031 20.4767 6.13035L20.4343 6.89675C20.4008 7.50325 20.6447 8.09212 21.0973 8.49727L21.6691 9.00923C22.5571 9.8042 22.5571 11.1945 21.6691 11.9895L21.0973 12.5014C20.6447 12.9066 20.4008 13.4955 20.4343 14.102L20.4767 14.8683C20.5425 16.0584 19.5594 17.0415 18.3693 16.9757L17.6029 16.9333C16.9964 16.8998 16.4076 17.1437 16.0024 17.5963L15.4904 18.1682C14.6955 19.0562 13.3052 19.0562 12.5102 18.1682L11.9982 17.5963C11.5931 17.1437 11.0042 16.8998 10.3977 16.9333L9.63133 16.9757C8.44129 17.0415 7.45819 16.0584 7.52398 14.8683L7.56635 14.102C7.59988 13.4955 7.35596 12.9066 6.90339 12.5014L6.33151 11.9895C5.4435 11.1945 5.4435 9.8042 6.33151 9.00923L6.90339 8.49727C7.35596 8.09212 7.59988 7.50325 7.56635 6.89675L7.52398 6.13035C7.45819 4.94031 8.44129 3.95722 9.63133 4.02301L10.3977 4.06537C11.0042 4.0989 11.5931 3.85499 11.9982 3.40242L12.5102 2.83054Z" stroke="#FF7B1D" stroke-width="2"/>
<path d="M17.5 9.33398L13.3 12.834L10.5 10.5007" stroke="#FF7B1D" stroke-width="2" stroke-linecap="round" stroke-linejoin="round"/>
<path d="M9.33327 17.509L9.33301 24.5L13.9997 21.5833L18.6663 24.5L18.6666 17.5" stroke="#FF7B1D" stroke-width="2" stroke-linecap="round" stroke-linejoin="round"/>
</svg>
