<svg width="124" height="32" viewBox="0 0 124 32" fill="none" xmlns="http://www.w3.org/2000/svg">
<path d="M118.317 21.5358C117.135 21.5358 116.075 21.3236 115.137 20.8992C114.198 20.4571 113.451 19.8646 112.895 19.1219C112.356 18.3791 112.061 17.5568 112.009 16.6548H115.684C115.754 17.2208 116.023 17.6894 116.492 18.0608C116.979 18.4322 117.579 18.6179 118.291 18.6179C118.986 18.6179 119.525 18.4764 119.907 18.1934C120.307 17.9105 120.507 17.5479 120.507 17.1058C120.507 16.6283 120.264 16.2746 119.777 16.0447C119.308 15.7971 118.552 15.5319 117.509 15.2489C116.432 14.9836 115.545 14.7095 114.85 14.4266C114.172 14.1436 113.582 13.7103 113.078 13.1267C112.591 12.5431 112.348 11.7562 112.348 10.7658C112.348 9.95231 112.574 9.20955 113.025 8.53753C113.495 7.86551 114.155 7.33497 115.007 6.9459C115.876 6.55684 116.892 6.3623 118.057 6.3623C119.777 6.3623 121.15 6.80442 122.175 7.68866C123.201 8.55522 123.765 9.73125 123.87 11.2168H120.377C120.324 10.6332 120.081 10.1734 119.647 9.83736C119.23 9.48367 118.665 9.30682 117.952 9.30682C117.292 9.30682 116.779 9.43061 116.414 9.6782C116.067 9.92579 115.893 10.2706 115.893 10.7128C115.893 11.2079 116.136 11.5882 116.623 11.8534C117.109 12.101 117.865 12.3574 118.891 12.6227C119.933 12.888 120.794 13.1621 121.471 13.4451C122.149 13.728 122.731 14.1701 123.218 14.7714C123.722 15.355 123.983 16.1331 124 17.1058C124 17.9547 123.765 18.7151 123.296 19.3871C122.844 20.0592 122.184 20.5897 121.315 20.9788C120.463 21.3502 119.464 21.5358 118.317 21.5358Z" fill="#282829"/>
<path d="M107.386 4.85045C106.743 4.85045 106.205 4.64708 105.77 4.24033C105.353 3.81589 105.145 3.29419 105.145 2.67523C105.145 2.05626 105.353 1.5434 105.77 1.13665C106.205 0.712217 106.743 0.5 107.386 0.5C108.029 0.5 108.559 0.712217 108.977 1.13665C109.411 1.5434 109.628 2.05626 109.628 2.67523C109.628 3.29419 109.411 3.81589 108.977 4.24033C108.559 4.64708 108.029 4.85045 107.386 4.85045ZM109.185 6.60125V21.2973H105.536V6.60125H109.185Z" fill="#282829"/>
<path d="M96.857 21.5358C95.6753 21.5358 94.6152 21.3236 93.6767 20.8992C92.7383 20.4571 91.991 19.8646 91.4349 19.1219C90.8962 18.3791 90.6007 17.5568 90.5486 16.6548H94.2241C94.2937 17.2208 94.563 17.6894 95.0323 18.0608C95.5189 18.4322 96.1184 18.6179 96.8309 18.6179C97.5261 18.6179 98.0648 18.4764 98.4471 18.1934C98.8469 17.9105 99.0467 17.5479 99.0467 17.1058C99.0467 16.6283 98.8034 16.2746 98.3168 16.0447C97.8476 15.7971 97.0916 15.5319 96.0489 15.2489C94.9714 14.9836 94.0851 14.7095 93.39 14.4266C92.7122 14.1436 92.1213 13.7103 91.6174 13.1267C91.1308 12.5431 90.8875 11.7562 90.8875 10.7658C90.8875 9.95231 91.1134 9.20955 91.5652 8.53753C92.0345 7.86551 92.6948 7.33497 93.5464 6.9459C94.4153 6.55684 95.432 6.3623 96.5963 6.3623C98.3168 6.3623 99.6897 6.80442 100.715 7.68866C101.74 8.55522 102.305 9.73125 102.409 11.2168H98.9164C98.8642 10.6332 98.6209 10.1734 98.1865 9.83736C97.7694 9.48367 97.2046 9.30682 96.4921 9.30682C95.8317 9.30682 95.319 9.43061 94.9541 9.6782C94.6065 9.92579 94.4327 10.2706 94.4327 10.7128C94.4327 11.2079 94.676 11.5882 95.1626 11.8534C95.6492 12.101 96.4052 12.3574 97.4305 12.6227C98.4732 12.888 99.3335 13.1621 100.011 13.4451C100.689 13.728 101.271 14.1701 101.758 14.7714C102.262 15.355 102.522 16.1331 102.54 17.1058C102.54 17.9547 102.305 18.7151 101.836 19.3871C101.384 20.0592 100.724 20.5897 99.8548 20.9788C99.0033 21.3502 98.004 21.5358 96.857 21.5358Z" fill="#282829"/>
<path d="M81.1199 21.5358C79.7296 21.5358 78.4783 21.2264 77.3661 20.6074C76.2539 19.9707 75.3763 19.0777 74.7332 17.9281C74.1076 16.7786 73.7948 15.4523 73.7948 13.9491C73.7948 12.4459 74.1163 11.1195 74.7593 9.97C75.4197 8.82049 76.3147 7.93625 77.4443 7.31728C78.5739 6.68063 79.8339 6.3623 81.2241 6.3623C82.6144 6.3623 83.8744 6.68063 85.004 7.31728C86.1336 7.93625 87.0199 8.82049 87.6629 9.97C88.3233 11.1195 88.6535 12.4459 88.6535 13.9491C88.6535 15.4523 88.3146 16.7786 87.6368 17.9281C86.9765 19.0777 86.0728 19.9707 84.9258 20.6074C83.7962 21.2264 82.5275 21.5358 81.1199 21.5358ZM81.1199 18.2995C81.7803 18.2995 82.3972 18.1404 82.9707 17.822C83.5616 17.486 84.0308 16.9909 84.3784 16.3365C84.7259 15.6822 84.8997 14.8864 84.8997 13.9491C84.8997 12.552 84.5348 11.482 83.8049 10.7393C83.0923 9.97884 82.2147 9.59862 81.172 9.59862C80.1293 9.59862 79.2517 9.97884 78.5392 10.7393C77.844 11.482 77.4964 12.552 77.4964 13.9491C77.4964 15.3462 77.8353 16.4249 78.5131 17.1854C79.2082 17.9281 80.0772 18.2995 81.1199 18.2995Z" fill="#282829"/>
<path d="M65.4757 6.38904C67.1962 6.38904 68.5865 6.94611 69.6466 8.06025C70.7067 9.15671 71.2367 10.6953 71.2367 12.676V21.2973H67.5872V13.18C67.5872 12.0128 67.3005 11.1197 66.727 10.5007C66.1535 9.8641 65.3715 9.54577 64.3809 9.54577C63.3729 9.54577 62.5735 9.8641 61.9826 10.5007C61.4092 11.1197 61.1224 12.0128 61.1224 13.18V21.2973H57.4729V6.60126H61.1224V8.43163C61.609 7.79498 62.2259 7.2998 62.9732 6.94611C63.7379 6.57473 64.572 6.38904 65.4757 6.38904Z" fill="#282829"/>
<path d="M45.4625 6.3623C46.54 6.3623 47.4871 6.58336 48.3039 7.02548C49.1207 7.44992 49.7637 8.00699 50.2329 8.69669V6.60105H53.9085V21.4032C53.9085 22.7649 53.6391 23.9763 53.1004 25.0374C52.5616 26.1162 51.7535 26.9651 50.6761 27.584C49.5986 28.2207 48.2952 28.539 46.7659 28.539C44.7152 28.539 43.0295 28.0527 41.7087 27.08C40.4053 26.1074 39.6667 24.781 39.4929 23.1009H43.1164C43.3075 23.773 43.7159 24.3035 44.3416 24.6926C44.9846 25.0993 45.7579 25.3027 46.6616 25.3027C47.7217 25.3027 48.5819 24.9755 49.2423 24.3212C49.9027 23.6845 50.2329 22.7119 50.2329 21.4032V19.1219C49.7637 19.8116 49.112 20.3863 48.2778 20.8461C47.461 21.3059 46.5226 21.5358 45.4625 21.5358C44.246 21.5358 43.1338 21.2175 42.1258 20.5809C41.1178 19.9442 40.3184 19.0511 39.7275 17.9016C39.1541 16.7344 38.8673 15.3992 38.8673 13.896C38.8673 12.4105 39.1541 11.093 39.7275 9.94347C40.3184 8.79396 41.1091 7.90972 42.0997 7.29076C43.1077 6.67179 44.2286 6.3623 45.4625 6.3623ZM50.2329 13.9491C50.2329 13.0471 50.0591 12.2779 49.7115 11.6412C49.364 10.9869 48.8947 10.4917 48.3039 10.1557C47.713 9.80199 47.0787 9.62514 46.4009 9.62514C45.7232 9.62514 45.0975 9.79315 44.524 10.1292C43.9505 10.4652 43.4813 10.9603 43.1164 11.6147C42.7688 12.2513 42.595 13.0118 42.595 13.896C42.595 14.7803 42.7688 15.5584 43.1164 16.2304C43.4813 16.8847 43.9505 17.3888 44.524 17.7425C45.1149 18.0962 45.7405 18.273 46.4009 18.273C47.0787 18.273 47.713 18.105 48.3039 17.769C48.8947 17.4153 49.364 16.9201 49.7115 16.2835C50.0591 15.6291 50.2329 14.851 50.2329 13.9491Z" fill="#282829"/>
<path d="M21.2003 13.896C21.2003 12.4105 21.487 11.093 22.0605 9.94347C22.6514 8.79396 23.4421 7.90972 24.4327 7.29076C25.4406 6.67179 26.5615 6.3623 27.7954 6.3623C28.8729 6.3623 29.8113 6.58336 30.6108 7.02548C31.4276 7.4676 32.0792 8.02467 32.5658 8.69669V6.60105H36.2414V21.2971H32.5658V19.1484C32.0966 19.8381 31.4449 20.4129 30.6108 20.8727C29.794 21.3148 28.8468 21.5358 27.7694 21.5358C26.5529 21.5358 25.4406 21.2175 24.4327 20.5809C23.4421 19.9442 22.6514 19.0511 22.0605 17.9016C21.487 16.7344 21.2003 15.3992 21.2003 13.896ZM32.5658 13.9491C32.5658 13.0471 32.3921 12.2779 32.0445 11.6412C31.6969 10.9869 31.2277 10.4917 30.6368 10.1557C30.046 9.80199 29.4116 9.62514 28.7339 9.62514C28.0561 9.62514 27.4305 9.79315 26.857 10.1292C26.2835 10.4652 25.8143 10.9603 25.4493 11.6147C25.1017 12.2513 24.928 13.0118 24.928 13.896C24.928 14.7803 25.1017 15.5584 25.4493 16.2304C25.8143 16.8847 26.2835 17.3888 26.857 17.7425C27.4479 18.0962 28.0735 18.273 28.7339 18.273C29.4116 18.273 30.046 18.105 30.6368 17.769C31.2277 17.4153 31.6969 16.9201 32.0445 16.2835C32.3921 15.6291 32.5658 14.851 32.5658 13.9491Z" fill="#282829"/>
<path d="M16.7344 4.85045C16.0914 4.85045 15.5526 4.64708 15.1182 4.24033C14.7011 3.81589 14.4926 3.29419 14.4926 2.67523C14.4926 2.05626 14.7011 1.5434 15.1182 1.13665C15.5526 0.712217 16.0914 0.5 16.7344 0.5C17.3774 0.5 17.9074 0.712217 18.3245 1.13665C18.759 1.5434 18.9762 2.05626 18.9762 2.67523C18.9762 3.29419 18.759 3.81589 18.3245 4.24033C17.9074 4.64708 17.3774 4.85045 16.7344 4.85045ZM18.5331 6.60125V21.2973H14.8836V6.60125H18.5331Z" fill="#282829"/>
<path d="M0.0125228 27.3809C0.0126049 28.7378 -0.0124251 30.1155 0.00806311 31.4979C1.36261 31.5196 3.46898 31.3844 5.85783 30.506C8.22156 29.6485 9.91035 28.4178 10.9651 27.5432C10.8881 26.7165 10.7907 25.8644 10.6887 25.0585C9.90857 24.8149 9.12847 24.5712 8.35308 24.2813C7.59502 24.9523 6.35353 25.8545 4.67569 26.5249C2.76085 27.2646 1.06885 27.3955 0.0125228 27.3809Z" fill="#1C5DF3"/>
<path d="M0.00975263 25.0275C2.92644 25.0276 5.72367 23.8485 7.78608 21.7497C9.84849 19.651 11.0071 16.8045 11.0071 13.8364C11.0071 10.8683 9.84849 8.02182 7.78608 5.92307C5.72367 3.82433 2.92644 2.64526 0.00975526 2.64526L0.00975444 6.90203C1.81702 6.90203 3.55027 7.63262 4.8282 8.93306C6.10613 10.2335 6.82407 11.9973 6.82407 13.8364C6.82407 15.6755 6.10613 17.4393 4.8282 18.7398C3.55027 20.0402 1.81702 20.7708 0.00975282 20.7708L0.00975263 25.0275Z" fill="#282829"/>
</svg>
